<?xml version="1.0" standalone="no"?><!DOCTYPE svg PUBLIC "-//W3C//DTD SVG 1.1//EN" "http://www.w3.org/Graphics/SVG/1.1/DTD/svg11.dtd"><svg t="1583482516352" class="icon" viewBox="0 0 1024 1024" version="1.1" xmlns="http://www.w3.org/2000/svg" p-id="1618" xmlns:xlink="http://www.w3.org/1999/xlink" width="200" height="200"><defs><style type="text/css"></style></defs><path d="M244.864 680.343273c-57.949091 0-104.925091-47.104-104.925091-105.169455s46.964364-105.181091 104.925091-105.181091c57.972364 0 104.936727 47.104 104.936727 105.181091 0 58.065455-46.964364 105.169455-104.936727 105.169455z m0-41.890909c34.804364 0 63.045818-28.322909 63.045818-63.278546 0-34.967273-28.241455-63.290182-63.045818-63.290182-34.792727 0-63.034182 28.322909-63.034182 63.290182 0 34.955636 28.241455 63.278545 63.034182 63.278546zM790.772364 680.343273c-57.972364 0-104.936727-47.104-104.936728-105.169455s46.964364-105.181091 104.936728-105.181091c57.949091 0 104.925091 47.104 104.925091 105.181091 0 58.065455-46.964364 105.169455-104.925091 105.169455z m0-41.890909c34.792727 0 63.034182-28.322909 63.034181-63.278546 0-34.967273-28.241455-63.290182-63.034181-63.290182-34.804364 0-63.045818 28.322909-63.045819 63.290182 0 34.955636 28.241455 63.278545 63.045819 63.278546zM762.926545 185.134545a83.781818 83.781818 0 0 0-83.141818-73.425454H355.851636a83.781818 83.781818 0 0 0-83.141818 73.425454l-22.4 179.688728H785.338182L762.926545 185.134545zM355.84 69.818182h323.933091a125.672727 125.672727 0 0 1 124.706909 110.126545l28.276364 226.769455H202.868364l28.264727-226.769455A125.672727 125.672727 0 0 1 355.84 69.818182z" fill="#ffffff" p-id="1619"></path><path d="M160.581818 406.493091a83.781818 83.781818 0 0 0-83.781818 83.781818v169.774546a83.781818 83.781818 0 0 0 83.781818 83.781818h714.472727a83.781818 83.781818 0 0 0 83.781819-83.781818v-169.774546a83.781818 83.781818 0 0 0-83.781819-83.781818H160.581818z m0-41.890909h714.472727c69.410909 0 125.672727 56.273455 125.672728 125.672727v169.774546c0 69.410909-56.261818 125.672727-125.672728 125.672727H160.581818c-69.410909 0-125.672727-56.261818-125.672727-125.672727v-169.774546c0-69.399273 56.261818-125.672727 125.672727-125.672727z" fill="#ffffff" p-id="1620"></path><path d="M202.88 827.845818m31.499636 0l-0.011636 0q31.499636 0 31.499636 31.499637l0 63.336727q0 31.499636-31.499636 31.499636l0.011636 0q-31.499636 0-31.499636-31.499636l0-63.336727q0-31.499636 31.499636-31.499637Z" fill="#ffffff" p-id="1621"></path><path d="M748.776727 827.845818m31.499637 0l-0.011637 0q31.499636 0 31.499637 31.499637l0 63.336727q0 31.499636-31.499637 31.499636l0.011637 0q-31.499636 0-31.499637-31.499636l0-63.336727q0-31.499636 31.499637-31.499637Z" fill="#ffffff" p-id="1622"></path></svg>