<?xml version="1.0" standalone="no"?><!DOCTYPE svg PUBLIC "-//W3C//DTD SVG 1.1//EN" "http://www.w3.org/Graphics/SVG/1.1/DTD/svg11.dtd"><svg t="1575183222142" class="icon" viewBox="0 0 1024 1024" version="1.1" xmlns="http://www.w3.org/2000/svg" p-id="1208" xmlns:xlink="http://www.w3.org/1999/xlink" width="200" height="200"><defs><style type="text/css"></style></defs><path d="M735.008 1018.176c-110.016 0-253.056-91.424-445.376-283.776C75.552 520.32-13.536 367.328 9.344 252.96c24.928-124.704 166.016-220 172-224a32 32 0 0 1 40.384 4L448 259.232a31.968 31.968 0 0 1 0 45.248l-101.664 101.664c8.032 16.032 34.944 57.888 124.288 147.232s131.2 116.256 147.264 124.288L719.52 576a32.96 32.96 0 0 1 45.248 0l226.272 226.272a32 32 0 0 1 4 40.384c-4 6.016-99.328 147.072-224 172-11.616 2.336-23.616 3.52-36.032 3.52zM196 97.696c-36.448 28.8-109.184 94.208-123.904 167.808-17.792 88.96 70.624 231.488 262.784 423.648 192.16 192.16 334.592 280.544 423.648 262.784 73.568-14.72 139.008-87.456 167.776-123.904l-184.128-184.128-90.496 90.528c-23.424 23.456-67.072 23.424-226.272-135.776-67.808-67.776-112.416-120.608-132.64-156.992-17.184-30.88-18.208-54.208-3.136-69.28l90.528-90.528-184.16-184.16zM958.848 512.064a32 32 0 0 1-31.872-29.76c-14.464-205.12-180.064-370.784-385.216-385.248a32 32 0 1 1 4.512-63.84c236.768 16.704 427.84 207.872 444.512 444.608A32 32 0 0 1 961.12 512l-2.272 0.064z" p-id="1209" fill="#6264e2"></path><path d="M765.984 511.744a32 32 0 0 1-31.712-28 223.52 223.52 0 0 0-194.208-194.016 31.968 31.968 0 1 1 7.936-63.488 287.456 287.456 0 0 1 249.792 249.504 32 32 0 0 1-31.808 36zM187.84 388.672c-11.552 0-22.72-6.272-28.448-17.248-25.76-49.6-27.584-78.144-24.576-93.344 3.968-19.744 15.712-41.92 34.976-65.888a32 32 0 0 1 49.888 40.096c-17.312 21.536-21.216 33.92-22.08 38.272 0.128 0-0.032 15.52 18.592 51.392a32.064 32.064 0 0 1-28.352 46.72z" p-id="1210" fill="#6264e2"></path></svg>