<?xml version="1.0" standalone="no"?><!DOCTYPE svg PUBLIC "-//W3C//DTD SVG 1.1//EN" "http://www.w3.org/Graphics/SVG/1.1/DTD/svg11.dtd"><svg t="1578213570995" class="icon" viewBox="0 0 1024 1024" version="1.1" xmlns="http://www.w3.org/2000/svg" p-id="962" xmlns:xlink="http://www.w3.org/1999/xlink" width="200" height="200"><defs><style type="text/css"></style></defs><path d="M411.392 698.08l40.032-105.6 10.176 3.84-40.032 105.6zM321.12 663.744l40.064-105.6 10.176 3.84-40.064 105.6zM439.04 541.44a29.44 29.44 0 0 1-18.88-14.08 41.28 41.28 0 0 0-44.16 24.32l80.32 32a41.92 41.92 0 0 0-9.6-41.92 26.88 26.88 0 0 1-5.12 0z" fill="#e8989a" p-id="963"></path><path d="M518.4 66.24A441.6 441.6 0 1 0 960 507.52 441.6 441.6 0 0 0 518.4 66.24z m88 153.92a56 56 0 1 1-56 55.68 56.32 56.32 0 0 1 56-56z m142.4 295.68a27.84 27.84 0 0 1-25.92 20.8c-2.24 0-7.04-2.56-9.6-2.56l-73.28-32c-4.8-2.56-11.84-5.12-14.08-12.8l-11.84-23.36-32 80.32c37.76 70.08 96 186.56 96 192a40.64 40.64 0 0 1-14.08 51.84 40.96 40.96 0 0 1-16.64 5.12 36.48 36.48 0 0 1-32-20.8c0-2.56-37.76-77.76-71.04-142.4L491.2 768a32 32 0 0 1-32 23.36 35.2 35.2 0 0 0-16.64 0 39.68 39.68 0 0 1-16.64-49.28l8.96-22.72h-3.84l-128-48.64A27.84 27.84 0 0 1 288 634.24l32-77.76a25.28 25.28 0 0 1 32-12.48l14.08 5.44a53.44 53.44 0 0 1 49.92-32 26.88 26.88 0 0 1 0-8l9.6-96a32 32 0 0 1 18.88-23.36l111.04-41.6a50.24 50.24 0 0 1 61.44 10.24l4.8 5.12c0 2.56 2.24 5.12 4.8 7.68l40.32 80.32 64 25.92a35.52 35.52 0 0 1 17.92 37.76z" fill="#e8989a" p-id="964"></path><path d="M466.24 586.24l14.08 5.44a25.28 25.28 0 0 1 4.48 2.88l15.68-39.68a105.28 105.28 0 0 1-2.24-80.32c4.8-12.8 11.84-32 18.88-49.28l-42.56 15.68-7.04 75.2a24.96 24.96 0 0 1-10.24 20.48 54.08 54.08 0 0 1 8.96 49.6z" fill="#e8989a" p-id="965"></path><path d="M464.96 700.8l29.44-77.76a23.04 23.04 0 0 0-9.6-28.48l-48.64 124.16a26.56 26.56 0 0 0 28.8-17.92zM430.4 529.6a43.84 43.84 0 0 1 16 11.2 25.6 25.6 0 0 0 10.88-4.8 53.76 53.76 0 0 0-23.04-16.64 54.4 54.4 0 0 0-18.24-3.2 30.08 30.08 0 0 0 4.16 11.52 44.48 44.48 0 0 1 10.24 1.92z" fill="#e8989a" p-id="966"></path></svg>