<?xml version="1.0" standalone="no"?><!DOCTYPE svg PUBLIC "-//W3C//DTD SVG 1.1//EN" "http://www.w3.org/Graphics/SVG/1.1/DTD/svg11.dtd"><svg t="1578567087190" class="icon" viewBox="0 0 1024 1024" version="1.1" xmlns="http://www.w3.org/2000/svg" p-id="4235" xmlns:xlink="http://www.w3.org/1999/xlink" width="200" height="200"><defs><style type="text/css"></style></defs><path d="M791.04 512H691.2v-81.92h99.84C902.73792 430.08 993.28 520.62208 993.28 632.32S902.73792 834.56 791.04 834.56H691.2v-81.92h99.84C857.4976 752.64 911.36 698.7776 911.36 632.32S857.4976 512 791.04 512z" fill="#08979C" p-id="4236"></path><path d="M0 368.64a81.92 81.92 0 0 1 81.92-81.92h593.92a81.92 81.92 0 0 1 81.92 81.92v501.76c0 56.55552-45.84448 102.4-102.4 102.4H102.4C45.84448 972.8 0 926.95552 0 870.4V368.64z" fill="#36CFC9" p-id="4237"></path><path d="M153.6 450.56a40.96 40.96 0 0 1 40.96 40.96v286.72a40.96 40.96 0 0 1-81.92 0V491.52a40.96 40.96 0 0 1 40.96-40.96z" fill="#B5F5EC" p-id="4238"></path><path d="M431.84128 237.28128a40.96 40.96 0 0 1 0-57.92768L558.2336 52.96128a40.96 40.96 0 0 1 57.92768 57.91744L489.75872 237.28128a40.96 40.96 0 0 1-57.91744 0zM216.80128 237.28128a40.96 40.96 0 0 1 0-57.92768L343.1936 52.96128a40.96 40.96 0 0 1 57.92768 57.91744L274.71872 237.28128a40.96 40.96 0 0 1-57.91744 0z" fill="#36CFC9" p-id="4239"></path></svg>