<?xml version="1.0" standalone="no"?><!DOCTYPE svg PUBLIC "-//W3C//DTD SVG 1.1//EN" "http://www.w3.org/Graphics/SVG/1.1/DTD/svg11.dtd"><svg t="1590224867510" class="icon" viewBox="0 0 1024 1024" version="1.1" xmlns="http://www.w3.org/2000/svg" p-id="1620" xmlns:xlink="http://www.w3.org/1999/xlink" width="200" height="200"><defs><style type="text/css"></style></defs><path d="M967.111111 512A455.111111 455.111111 0 1 0 56.888889 512a455.111111 455.111111 0 0 0 910.222222 0zM170.666667 512c0-188.245333 153.088-341.333333 341.333333-341.333333s341.333333 153.088 341.333333 341.333333-153.088 341.333333-341.333333 341.333333-341.333333-153.088-341.333333-341.333333z" fill="#e8989a" p-id="1621"></path><path d="M455.224889 340.764444L455.224889 547.441778l-73.557333-74.922667c-22.300444-22.072889-58.311111-22.072889-80.611556 0s-22.243556 57.799111 0 79.815111l168.789333 170.666667A57.287111 57.287111 0 0 0 510.179556 739.555556l1.934222-0.056889C512.739556 739.441778 513.422222 739.55555599 514.048 739.555556c15.132444 0 29.63911101-5.973333 40.334222-16.554667l168.789334-170.666667c22.243556-22.072889 22.243556-57.799111 0-79.815111s-58.311111-22.072889-80.611556 0l-73.61422201 74.922667 1e-8-206.677334c0-31.11822199-25.201778-56.32-56.32-56.32l-1.024 0a56.32 56.32 0 0 0-56.32 56.32z" fill="#e8989a" p-id="1622"></path></svg>