<?xml version="1.0" standalone="no"?><!DOCTYPE svg PUBLIC "-//W3C//DTD SVG 1.1//EN" "http://www.w3.org/Graphics/SVG/1.1/DTD/svg11.dtd"><svg t="1583413504764" class="icon" viewBox="0 0 1024 1024" version="1.1" xmlns="http://www.w3.org/2000/svg" p-id="1369" xmlns:xlink="http://www.w3.org/1999/xlink" width="200" height="200"><defs><style type="text/css"></style></defs><path d="M947.2 966.4H89.6c-25.6 0-44.8-19.2-44.8-44.8v-832c0-19.2 12.8-32 32-32s32 12.8 32 32v819.2h838.4c19.2 0 32 12.8 32 32s-12.8 25.6-32 25.6z" fill="#6264e2" p-id="1370"></path><path d="M236.8 844.8c-19.2 0-32-12.8-32-32V569.6c0-19.2 12.8-32 32-32s32 12.8 32 32v236.8c0 19.2-12.8 38.4-32 38.4zM428.8 844.8c-19.2 0-32-12.8-32-32V480c0-19.2 12.8-32 32-32s32 12.8 32 32v332.8c0 12.8-12.8 32-32 32zM620.8 844.8c-19.2 0-32-12.8-32-32V569.6c0-19.2 12.8-32 32-32s32 12.8 32 32v243.2c0 12.8-12.8 32-32 32zM812.8 844.8c-19.2 0-32-12.8-32-32V416c0-19.2 12.8-32 32-32s32 12.8 32 32v396.8c0 12.8-12.8 32-32 32z" fill="#6264e2" p-id="1371"></path><path d="M211.2 467.2c-6.4 0-19.2 0-25.6-12.8-6.4-12.8-6.4-32 12.8-44.8l224-160 204.8 121.6 179.2-153.6c12.8-12.8 32-12.8 44.8 6.4 12.8 12.8 12.8 32-6.4 44.8L627.2 448 422.4 320l-192 140.8c0 6.4-6.4 6.4-19.2 6.4z" fill="#6264e2" p-id="1372"></path><path d="M921.6 153.6h-192c-6.4 0-6.4 6.4 0 6.4l147.2 185.6h6.4l38.4-192c6.4 6.4 6.4 0 0 0h-192c-6.4 0-6.4 6.4 0 6.4l147.2 185.6h6.4l38.4-192c6.4 6.4 6.4 0 0 0z" fill="#6264e2" p-id="1373"></path></svg>