<?xml version="1.0" standalone="no"?><!DOCTYPE svg PUBLIC "-//W3C//DTD SVG 1.1//EN" "http://www.w3.org/Graphics/SVG/1.1/DTD/svg11.dtd"><svg t="1578214219404" class="icon" viewBox="0 0 1059 1024" version="1.1" xmlns="http://www.w3.org/2000/svg" p-id="2637" xmlns:xlink="http://www.w3.org/1999/xlink" width="206.8359375" height="200"><defs><style type="text/css"></style></defs><path d="M724.339646 549.625c-65.25 0-118.375 53.125-118.375 118.375s53.125 118.375 118.375 118.375 118.375-53.125 118.375-118.375-53-118.375-118.375-118.375z m65.75 152.625h-82.75v-104.5c0-9.5 7.625-17 17-17s17 7.625 17 17v70.25h48.625c9.375 0 17 7.625 17 17s-7.5 17.25-16.875 17.25z" fill="#74e044" p-id="2638"></path><path d="M516.464646 0C233.714646 0 4.464646 229.25 4.464646 512c0 282.75 229.25 512 512 512s512-229.25 512-512C1028.464646 229.25 799.214646 0 516.464646 0z m39.375 820.625H303.589646c-41.375 0-75.125-33.75-75.125-75.125V280.875c0-41.375 33.75-75.125 75.125-75.125h362.875c41.375 0 75.125 33.75 75.125 75.125v176.125c0 9.5-7.625 17-17 17s-17-7.625-17-17V280.875c0-22.625-18.375-41-41-41H303.589646c-22.625 0-41 18.375-41 41v464.625c0 22.625 18.375 41 41 41h252.25c9.375 0 17 7.625 17 17s-7.625 17.125-17 17.125zM332.589646 586.375c-9.375 0-17-7.625-17-17s7.625-17 17-17h174c9.375 0 17 7.625 17 17s-7.625 17-17 17H332.589646z m137.875 95.375c0 9.5-7.625 17-17 17h-120.75c-9.375 0-17-7.625-17-17s7.625-17 17-17h120.75c9.375-0.125 17 7.5 17 17zM332.589646 474c-9.375 0-17-7.625-17-17S323.214646 440 332.589646 440h304.625c9.375 0 17 7.625 17 17s-7.625 17-17 17H332.589646z m304.625-112.25H332.589646c-9.375 0-17-7.625-17-17s7.625-17 17-17h304.625c9.375 0 17 7.625 17 17s-7.5 17-17 17z m87.125 458.875c-84.125 0-152.5-68.5-152.5-152.625s68.375-152.625 152.5-152.625S876.964646 583.875 876.964646 668s-68.375 152.625-152.625 152.625z" fill="#74e044" p-id="2639"></path></svg>