<?xml version="1.0" standalone="no"?><!DOCTYPE svg PUBLIC "-//W3C//DTD SVG 1.1//EN" "http://www.w3.org/Graphics/SVG/1.1/DTD/svg11.dtd"><svg t="1582610545911" class="icon" viewBox="0 0 1024 1024" version="1.1" xmlns="http://www.w3.org/2000/svg" p-id="2072" xmlns:xlink="http://www.w3.org/1999/xlink" width="200" height="200"><defs><style type="text/css"></style></defs><path d="M512 512m-481.28 0a481.28 481.28 0 1 0 962.56 0 481.28 481.28 0 1 0-962.56 0Z" fill="#7a7bf1" p-id="2073"></path><path d="M736.4608 287.5392L426.1888 426.17856 287.52896 736.4608l310.29248-138.63936z" fill="#b9bbee" p-id="2074"></path><path d="M597.82144 597.82144L287.5392 736.47104l138.63936-310.29248z" fill="#6264e2" p-id="2075"></path><path d="M481.28 86.54848v55.49056a30.72 30.72 0 0 0 61.44 0v-55.5008a30.72 30.72 0 0 0-61.44 0zM791.12192 189.44l-39.23968 39.23968a30.72 30.72 0 1 0 43.43808 43.43808l39.23968-39.23968a30.72 30.72 0 1 0-43.43808-43.43808zM937.45152 481.28H881.9712a30.72 30.72 0 1 0 0 61.44h55.5008a30.72 30.72 0 1 0 0-61.44zM834.56 791.12192l-39.23968-39.23968a30.72 30.72 0 1 0-43.43808 43.43808l39.23968 39.23968a30.72 30.72 0 1 0 43.43808-43.43808zM542.72 937.45152V881.9712a30.72 30.72 0 0 0-61.44 0v55.5008a30.72 30.72 0 1 0 61.44 0zM232.87808 834.56l39.23968-39.23968a30.72 30.72 0 1 0-43.43808-43.43808L189.44 791.12192a30.72 30.72 0 1 0 43.43808 43.43808zM86.54848 542.72h55.49056a30.72 30.72 0 1 0 0-61.44h-55.5008a30.72 30.72 0 1 0 0 61.44zM189.44 232.87808l39.23968 39.23968a30.72 30.72 0 1 0 43.43808-43.43808L232.87808 189.44a30.72 30.72 0 1 0-43.43808 43.43808z" fill="#6264e2" p-id="2076"></path></svg>