<?xml version="1.0" standalone="no"?><!DOCTYPE svg PUBLIC "-//W3C//DTD SVG 1.1//EN" "http://www.w3.org/Graphics/SVG/1.1/DTD/svg11.dtd"><svg t="1578214229183" class="icon" viewBox="0 0 1024 1024" version="1.1" xmlns="http://www.w3.org/2000/svg" p-id="2772" xmlns:xlink="http://www.w3.org/1999/xlink" width="200" height="200"><defs><style type="text/css"></style></defs><path d="M512 512m-512 0a512 512 0 1 0 1024 0 512 512 0 1 0-1024 0Z" fill="#F36865" p-id="2773"></path><path d="M355.1232 733.5936l276.48 276.48A512.9216 512.9216 0 0 0 983.04 712.3968L569.6512 298.8032z" fill="#F34541" p-id="2774"></path><path d="M455.3728 414.9248l49.2544 49.3568 64-49.3568H455.3728z" fill="#5364AA" p-id="2775"></path><path d="M512 356.352m-81.5104 0a81.5104 81.5104 0 1 0 163.0208 0 81.5104 81.5104 0 1 0-163.0208 0Z" fill="#FFFFFF" p-id="2776"></path><path d="M684.544 670.4128c0 122.88-77.2096 54.8864-172.544 54.8864s-172.544 68.096-172.544-54.8864S416.768 447.6928 512 447.6928s172.544 99.7376 172.544 222.72z" fill="#FFFFFF" p-id="2777"></path><path d="M510.2592 491.9296l-37.0688-7.5776v49.8688l37.0688-20.8896v-21.4016zM513.7408 491.9296l37.0688-7.5776v49.8688l-37.0688-20.8896v-21.4016z" fill="#26C6DA" p-id="2778"></path><path d="M476.9792 335.36m-13.6192 0a13.6192 13.6192 0 1 0 27.2384 0 13.6192 13.6192 0 1 0-27.2384 0Z" fill="#FF7043" p-id="2779"></path><path d="M548.5568 335.36m-13.6192 0a13.6192 13.6192 0 1 0 27.2384 0 13.6192 13.6192 0 1 0-27.2384 0Z" fill="#FF7043" p-id="2780"></path></svg>