<?xml version="1.0" standalone="no"?><!DOCTYPE svg PUBLIC "-//W3C//DTD SVG 1.1//EN" "http://www.w3.org/Graphics/SVG/1.1/DTD/svg11.dtd"><svg t="1575185334959" class="icon" viewBox="0 0 1024 1024" version="1.1" xmlns="http://www.w3.org/2000/svg" p-id="1399" xmlns:xlink="http://www.w3.org/1999/xlink" width="200" height="200"><defs><style type="text/css"></style></defs><path d="M8.0188 981.769713m21.058836 0l964.089299 0q21.058836 0 21.058837 21.058836l0 0.112615q0 21.058836-21.058837 21.058836l-964.089299 0q-21.058836 0-21.058836-21.058836l0-0.112615q0-21.058836 21.058836-21.058836Z" fill="#3A77D9" p-id="1400"></path><path d="M251.940937 868.367316h-87.501154a67.568459 67.568459 0 0 1-67.56846-67.56846v-506.763444a67.568459 67.568459 0 0 1 67.56846-67.568459h87.501154a67.568459 67.568459 0 0 1 67.56846 67.568459v506.763444a67.568459 67.568459 0 0 1-67.56846 67.56846z m-87.501154-596.854724a22.52282 22.52282 0 0 0-22.52282 22.52282v506.763444a22.52282 22.52282 0 0 0 22.52282 22.52282h87.501154a22.52282 22.52282 0 0 0 22.52282-22.52282v-506.763444a22.52282 22.52282 0 0 0-22.52282-22.52282zM554.872863 868.367316h-87.501155a67.568459 67.568459 0 0 1-67.568459-67.56846V67.568459a67.568459 67.568459 0 0 1 67.568459-67.568459h87.501155a67.568459 67.568459 0 0 1 67.568459 67.568459v733.230397a67.568459 67.568459 0 0 1-67.568459 67.56846zM467.371708 45.04564a22.52282 22.52282 0 0 0-22.522819 22.522819v733.230397a22.52282 22.52282 0 0 0 22.522819 22.52282h87.501155a22.52282 22.52282 0 0 0 22.52282-22.52282V67.568459a22.52282 22.52282 0 0 0-22.52282-22.522819zM857.804789 868.367316h-87.501155a67.568459 67.568459 0 0 1-67.568459-67.56846V161.601232a67.568459 67.568459 0 0 1 67.568459-67.56846h87.501155a67.568459 67.568459 0 0 1 67.568459 67.56846v639.197624a67.568459 67.568459 0 0 1-67.568459 67.56846z m-87.501155-729.288904a22.52282 22.52282 0 0 0-22.52282 22.52282v639.197624a22.52282 22.52282 0 0 0 22.52282 22.52282h87.501155a22.52282 22.52282 0 0 0 22.522819-22.52282V161.601232a22.52282 22.52282 0 0 0-22.522819-22.52282z" fill="#3A77D9" p-id="1401"></path></svg>