<?xml version="1.0" standalone="no"?><!DOCTYPE svg PUBLIC "-//W3C//DTD SVG 1.1//EN" "http://www.w3.org/Graphics/SVG/1.1/DTD/svg11.dtd"><svg t="1590056069766" class="icon" viewBox="0 0 1024 1024" version="1.1" xmlns="http://www.w3.org/2000/svg" p-id="2894" xmlns:xlink="http://www.w3.org/1999/xlink" width="200" height="200"><defs><style type="text/css"></style></defs><path d="M512 1023.999857c-64.614391 0.3072-388.915146-479.436733-388.915146-639.99991 0-212.07037 174.079976-383.999946 388.915146-383.999946 214.83517 0 388.915146 171.929576 388.915146 383.999946C900.915146 542.412724 575.692791 1024.307057 512 1023.999857zM512 63.999991c-178.995175 0-324.095955 143.25758-324.095955 319.999955 0 133.836781 270.233562 544.255924 324.095955 544.051124 53.043193 0.3072 324.095955-411.955142 324.095955-544.051124C836.095955 207.257571 690.995175 63.999991 512 63.999991zM512 544.051124c-89.497587 0-161.996777-71.67999-161.996777-160.051178 0-88.371188 72.49919-160.051178 161.996777-160.051178 89.497587 0 161.996777 71.67999 161.996777 160.051178C673.996777 472.371134 601.497587 544.051124 512 544.051124zM512 288.05116c-53.657592 0-97.177586 43.007994-97.177586 96.051187 0 53.043193 43.519994 95.948787 97.177586 95.948787s97.177586-43.007994 97.177586-95.948787C609.177586 330.956754 565.657592 288.05116 512 288.05116z" p-id="2895" fill="#6264e2"></path></svg>