<?xml version="1.0" standalone="no"?><!DOCTYPE svg PUBLIC "-//W3C//DTD SVG 1.1//EN" "http://www.w3.org/Graphics/SVG/1.1/DTD/svg11.dtd"><svg t="1575185289946" class="icon" viewBox="0 0 1456 1024" version="1.1" xmlns="http://www.w3.org/2000/svg" p-id="1129" xmlns:xlink="http://www.w3.org/1999/xlink" width="284.375" height="200"><defs><style type="text/css"></style></defs><path d="M102.146221 948.077654a42.296572 42.296572 0 0 1-32.991326-68.520446L528.707146 301.574556a42.296572 42.296572 0 0 1 56.465923-8.88228l402.874845 266.468401 331.182156-467.377116a42.296572 42.296572 0 1 1 68.943412 48.85254L1033.093763 641.216026a42.296572 42.296572 0 0 1-57.73482 10.785626L571.003717 384.475836 135.349029 932.216439a42.296572 42.296572 0 0 1-33.202808 15.861215z" fill="#3A77D9" p-id="1130"></path><path d="M1353.701776 102.146221m-102.14622 0a102.146221 102.146221 0 1 0 204.292441 0 102.146221 102.146221 0 1 0-204.292441 0Z" fill="#3A77D9" p-id="1131"></path><path d="M991.643123 604.206526m-102.146221 0a102.146221 102.146221 0 1 0 204.292441 0 102.146221 102.146221 0 1 0-204.292441 0Z" fill="#3A77D9" p-id="1132"></path><path d="M565.928129 343.025196m-102.146221 0a102.146221 102.146221 0 1 0 204.292441 0 102.146221 102.146221 0 1 0-204.292441 0Z" fill="#3A77D9" p-id="1133"></path><path d="M102.146221 921.642297m-102.146221 0a102.146221 102.146221 0 1 0 204.292441 0 102.146221 102.146221 0 1 0-204.292441 0Z" fill="#3A77D9" p-id="1134"></path></svg>